<mxfile host="app.diagrams.net" modified="2024-05-03T22:26:23.713Z" agent="Mozilla/5.0 (Windows NT 10.0; Win64; x64) AppleWebKit/537.36 (KHTML, like Gecko) Chrome/124.0.0.0 Safari/537.36" etag="N3miN5OiAHuM1Q8iBue6" version="24.3.1" type="google">
  <diagram name="Страница — 1" id="zP1mv_w-Tq96g38lJ4L_">
    <mxGraphModel grid="1" page="1" gridSize="10" guides="1" tooltips="1" connect="1" arrows="1" fold="1" pageScale="1" pageWidth="827" pageHeight="1169" math="0" shadow="0">
      <root>
        <mxCell id="0" />
        <mxCell id="1" parent="0" />
        <mxCell id="qXt2ET0yM1aGQKGmpTI2-1" value="&lt;p style=&quot;margin:0px;margin-top:4px;text-align:center;&quot;&gt;&lt;b&gt;Ученик&lt;/b&gt;&lt;/p&gt;&lt;hr size=&quot;1&quot; style=&quot;border-style:solid;&quot;&gt;&lt;p style=&quot;margin:0px;margin-left:4px;&quot;&gt;+ ID: int&lt;/p&gt;&lt;p style=&quot;margin:0px;margin-left:4px;&quot;&gt;+ Номер группы: int&lt;/p&gt;&lt;p style=&quot;margin:0px;margin-left:4px;&quot;&gt;+ ФИО: String&lt;/p&gt;&lt;p style=&quot;margin:0px;margin-left:4px;&quot;&gt;+ Контактная информация: String&lt;br&gt;+ Желаемая категория прав: String&lt;/p&gt;&lt;p style=&quot;margin:0px;margin-left:4px;&quot;&gt;+ Дата зачисления: datetime&lt;br&gt;+ Оценки: List&amp;lt;int&amp;gt;&lt;/p&gt;&lt;p style=&quot;margin:0px;margin-left:4px;&quot;&gt;+ Текущий статус обучения: String&lt;/p&gt;&lt;hr size=&quot;1&quot; style=&quot;border-style:solid;&quot;&gt;&lt;p style=&quot;margin:0px;margin-left:4px;&quot;&gt;+ Просмотр информации: Метод, который позволяет просматривать информацию об ученике.&lt;/p&gt;&lt;p style=&quot;margin:0px;margin-left:4px;&quot;&gt;+ Проверка статуса: Метод, который позволяет проверить текущий статус ученика (например, активный, приостановленный и т. д.).&lt;/p&gt;&lt;p style=&quot;margin:0px;margin-left:4px;&quot;&gt;+ Перевод в другую группу: Метод, который позволяет перевести ученика из одной группы в другую (например, из утренней в вечернюю).&lt;/p&gt;&lt;p style=&quot;margin:0px;margin-left:4px;&quot;&gt;+ Приостановка обучения: Метод, который позволяет временно приостановить обучение ученика.&lt;/p&gt;&lt;p style=&quot;margin:0px;margin-left:4px;&quot;&gt;+ Завершение обучения: Метод, который позволяет завершить обучение ученика и выдать ему соответствующие документы.&lt;/p&gt;" style="verticalAlign=top;align=left;overflow=fill;html=1;whiteSpace=wrap;" vertex="1" parent="1">
          <mxGeometry x="40" y="730" width="260" height="410" as="geometry" />
        </mxCell>
        <mxCell id="qXt2ET0yM1aGQKGmpTI2-2" value="Курс" style="swimlane;fontStyle=1;align=center;verticalAlign=top;childLayout=stackLayout;horizontal=1;startSize=26;horizontalStack=0;resizeParent=1;resizeParentMax=0;resizeLast=0;collapsible=1;marginBottom=0;whiteSpace=wrap;html=1;" vertex="1" parent="1">
          <mxGeometry x="40" y="200" width="260" height="460" as="geometry" />
        </mxCell>
        <mxCell id="qXt2ET0yM1aGQKGmpTI2-3" value="+ Номер: int&lt;div&gt;+ Категория прав: String&lt;/div&gt;&lt;div&gt;+ Срок обучения: int&lt;/div&gt;&lt;div&gt;+ Статус: String&lt;/div&gt;&lt;div&gt;+ Описание: String&lt;/div&gt;&lt;div&gt;+ Стоимость курса: int&lt;/div&gt;" style="text;strokeColor=none;fillColor=none;align=left;verticalAlign=top;spacingLeft=4;spacingRight=4;overflow=hidden;rotatable=0;points=[[0,0.5],[1,0.5]];portConstraint=eastwest;whiteSpace=wrap;html=1;" vertex="1" parent="qXt2ET0yM1aGQKGmpTI2-2">
          <mxGeometry y="26" width="260" height="94" as="geometry" />
        </mxCell>
        <mxCell id="qXt2ET0yM1aGQKGmpTI2-4" value="" style="line;strokeWidth=1;fillColor=none;align=left;verticalAlign=middle;spacingTop=-1;spacingLeft=3;spacingRight=3;rotatable=0;labelPosition=right;points=[];portConstraint=eastwest;strokeColor=inherit;" vertex="1" parent="qXt2ET0yM1aGQKGmpTI2-2">
          <mxGeometry y="120" width="260" height="8" as="geometry" />
        </mxCell>
        <mxCell id="qXt2ET0yM1aGQKGmpTI2-5" value="&lt;div&gt;+ Просмотр информации: Вывод информации об обучении, включая все поля объекта курса.&lt;/div&gt;&lt;div&gt;+ Изменить статус: обновление статуса курса (например, отметка как завершенная или приостановленная).&lt;/div&gt;&lt;div&gt;+ Редактировать информацию: изменение любых полей курса (например, изменение описания или стоимости курса).&lt;/div&gt;&lt;div&gt;+ Удалить: удаление курса из системы, если это необходимо.&lt;/div&gt;&lt;div&gt;+ Просмотр расписания занятий: Просмотр расписания занятий, связанных с данным курсом.&lt;/div&gt;&lt;div&gt;+ Просмотр оплат: Просмотр информации об оплатах, связанных с данным курсом.&lt;/div&gt;&lt;div&gt;+ Просмотр успеваемости: Просмотр успеваемости ученика в рамках данного курса.&lt;/div&gt;&lt;div&gt;+ Назначить инструктора: назначение определенного инструктора для данного курса.&lt;/div&gt;" style="text;strokeColor=none;fillColor=none;align=left;verticalAlign=top;spacingLeft=4;spacingRight=4;overflow=hidden;rotatable=0;points=[[0,0.5],[1,0.5]];portConstraint=eastwest;whiteSpace=wrap;html=1;" vertex="1" parent="qXt2ET0yM1aGQKGmpTI2-2">
          <mxGeometry y="128" width="260" height="332" as="geometry" />
        </mxCell>
        <mxCell id="qXt2ET0yM1aGQKGmpTI2-11" value="Администрация" style="swimlane;fontStyle=1;align=center;verticalAlign=top;childLayout=stackLayout;horizontal=1;startSize=26;horizontalStack=0;resizeParent=1;resizeParentMax=0;resizeLast=0;collapsible=1;marginBottom=0;whiteSpace=wrap;html=1;" vertex="1" parent="1">
          <mxGeometry x="420" y="420" width="230" height="440" as="geometry" />
        </mxCell>
        <mxCell id="qXt2ET0yM1aGQKGmpTI2-12" value="+ ID ученика: int&lt;div&gt;+ Список групп: List&amp;lt;int&amp;gt;&lt;/div&gt;" style="text;strokeColor=none;fillColor=none;align=left;verticalAlign=top;spacingLeft=4;spacingRight=4;overflow=hidden;rotatable=0;points=[[0,0.5],[1,0.5]];portConstraint=eastwest;whiteSpace=wrap;html=1;" vertex="1" parent="qXt2ET0yM1aGQKGmpTI2-11">
          <mxGeometry y="26" width="230" height="44" as="geometry" />
        </mxCell>
        <mxCell id="qXt2ET0yM1aGQKGmpTI2-13" value="" style="line;strokeWidth=1;fillColor=none;align=left;verticalAlign=middle;spacingTop=-1;spacingLeft=3;spacingRight=3;rotatable=0;labelPosition=right;points=[];portConstraint=eastwest;strokeColor=inherit;" vertex="1" parent="qXt2ET0yM1aGQKGmpTI2-11">
          <mxGeometry y="70" width="230" height="8" as="geometry" />
        </mxCell>
        <mxCell id="qXt2ET0yM1aGQKGmpTI2-14" value="+ Сохранить: сохранение информации о текущем состоянии отдела администрации в хранилище данных.&lt;div&gt;+ Удалить: удаление отдела администрации из системы.&lt;/div&gt;&lt;div&gt;+ Редактировать: внос изменений в информацию о текущем состоянии отдела администрации.&lt;/div&gt;&lt;div&gt;&lt;div&gt;+ Просмотреть информацию об ученике: просмотр полной информации об ученике, включая его данные, группы и другие детали.&lt;/div&gt;&lt;div&gt;+ Просмотреть список учеников в группе: просмотр списка учеников, принадлежащих определенной группе.&lt;/div&gt;&lt;div&gt;+ Назначить ученика в группу: Метод, позволяющий администратору назначить ученика в определенную группу.&lt;/div&gt;&lt;div&gt;+ Поиск ученика по ID: Поиск ученика по его идентификатору.&lt;/div&gt;&lt;div&gt;+ Просмотреть список всех групп: Просмотр списка всех групп в автошколе.&lt;/div&gt;&lt;/div&gt;" style="text;strokeColor=none;fillColor=none;align=left;verticalAlign=top;spacingLeft=4;spacingRight=4;overflow=hidden;rotatable=0;points=[[0,0.5],[1,0.5]];portConstraint=eastwest;whiteSpace=wrap;html=1;" vertex="1" parent="qXt2ET0yM1aGQKGmpTI2-11">
          <mxGeometry y="78" width="230" height="362" as="geometry" />
        </mxCell>
        <mxCell id="qXt2ET0yM1aGQKGmpTI2-15" value="" style="endArrow=classic;html=1;rounded=0;exitX=0.505;exitY=-0.001;exitDx=0;exitDy=0;entryX=0.505;entryY=1.004;entryDx=0;entryDy=0;entryPerimeter=0;exitPerimeter=0;" edge="1" parent="1" source="qXt2ET0yM1aGQKGmpTI2-1" target="qXt2ET0yM1aGQKGmpTI2-5">
          <mxGeometry width="50" height="50" relative="1" as="geometry">
            <mxPoint x="240" y="490" as="sourcePoint" />
            <mxPoint x="290" y="440" as="targetPoint" />
          </mxGeometry>
        </mxCell>
        <mxCell id="qXt2ET0yM1aGQKGmpTI2-16" value="1...N" style="text;html=1;align=center;verticalAlign=middle;whiteSpace=wrap;rounded=0;" vertex="1" parent="1">
          <mxGeometry x="180" y="710" width="30" height="20" as="geometry" />
        </mxCell>
        <mxCell id="qXt2ET0yM1aGQKGmpTI2-17" value="1" style="text;html=1;align=center;verticalAlign=middle;whiteSpace=wrap;rounded=0;" vertex="1" parent="1">
          <mxGeometry x="180" y="670" width="10" height="15" as="geometry" />
        </mxCell>
        <mxCell id="qXt2ET0yM1aGQKGmpTI2-18" value="" style="endArrow=classic;html=1;rounded=0;exitX=0.992;exitY=0.56;exitDx=0;exitDy=0;exitPerimeter=0;entryX=0.652;entryY=0;entryDx=0;entryDy=0;entryPerimeter=0;" edge="1" parent="1" source="qXt2ET0yM1aGQKGmpTI2-3" target="qXt2ET0yM1aGQKGmpTI2-11">
          <mxGeometry width="50" height="50" relative="1" as="geometry">
            <mxPoint x="380" y="340" as="sourcePoint" />
            <mxPoint x="430" y="290" as="targetPoint" />
            <Array as="points">
              <mxPoint x="570" y="279" />
            </Array>
          </mxGeometry>
        </mxCell>
        <mxCell id="qXt2ET0yM1aGQKGmpTI2-20" value="1" style="text;html=1;align=center;verticalAlign=middle;whiteSpace=wrap;rounded=0;" vertex="1" parent="1">
          <mxGeometry x="310" y="250" width="20" height="20" as="geometry" />
        </mxCell>
        <mxCell id="qXt2ET0yM1aGQKGmpTI2-21" value="1" style="text;html=1;align=center;verticalAlign=middle;whiteSpace=wrap;rounded=0;" vertex="1" parent="1">
          <mxGeometry x="550" y="390" width="15" height="30" as="geometry" />
        </mxCell>
        <mxCell id="qXt2ET0yM1aGQKGmpTI2-22" value="" style="endArrow=classic;html=1;rounded=0;entryX=1.004;entryY=0.169;entryDx=0;entryDy=0;entryPerimeter=0;exitX=-0.001;exitY=0.831;exitDx=0;exitDy=0;exitPerimeter=0;" edge="1" parent="1" source="qXt2ET0yM1aGQKGmpTI2-14" target="qXt2ET0yM1aGQKGmpTI2-1">
          <mxGeometry width="50" height="50" relative="1" as="geometry">
            <mxPoint x="330" y="900" as="sourcePoint" />
            <mxPoint x="380" y="850" as="targetPoint" />
          </mxGeometry>
        </mxCell>
        <mxCell id="qXt2ET0yM1aGQKGmpTI2-24" value="1...N" style="text;html=1;align=center;verticalAlign=middle;whiteSpace=wrap;rounded=0;" vertex="1" parent="1">
          <mxGeometry x="384" y="780" width="30" height="20" as="geometry" />
        </mxCell>
        <mxCell id="qXt2ET0yM1aGQKGmpTI2-25" value="1" style="text;html=1;align=center;verticalAlign=middle;whiteSpace=wrap;rounded=0;" vertex="1" parent="1">
          <mxGeometry x="310" y="780" width="10" height="15" as="geometry" />
        </mxCell>
      </root>
    </mxGraphModel>
  </diagram>
</mxfile>
